<?xml version="1.0" encoding="UTF-8" standalone="no"?>
<!-- Created with Inkscape (http://www.inkscape.org/) -->

<svg
   xmlns:dc="http://purl.org/dc/elements/1.1/"
   xmlns:cc="http://creativecommons.org/ns#"
   xmlns:rdf="http://www.w3.org/1999/02/22-rdf-syntax-ns#"
   xmlns:svg="http://www.w3.org/2000/svg"
   xmlns="http://www.w3.org/2000/svg"
   xmlns:sodipodi="http://sodipodi.sourceforge.net/DTD/sodipodi-0.dtd"
   xmlns:inkscape="http://www.inkscape.org/namespaces/inkscape"
   width="1600px"
   height="1200px"
   id="svg2985"
   version="1.1"
   inkscape:version="0.48.5 r10040"
   sodipodi:docname="Character.svg"
   inkscape:export-filename="C:\Users\имам\Desktop\MySprite\png\player.png"
   inkscape:export-xdpi="88"
   inkscape:export-ydpi="88">
  <defs
     id="defs2987">
    <filter
       inkscape:label="Glow"
       inkscape:menu="Shadows and Glows"
       inkscape:menu-tooltip="Glow of object's own color at the edges"
       color-interpolation-filters="sRGB"
       id="filter3810">
      <feGaussianBlur
         stdDeviation="5"
         result="result91"
         id="feGaussianBlur3812" />
      <feComposite
         in="SourceGraphic"
         operator="over"
         in2="result91"
         id="feComposite3814" />
    </filter>
    <filter
       inkscape:label="Glow"
       inkscape:menu="Shadows and Glows"
       inkscape:menu-tooltip="Glow of object's own color at the edges"
       color-interpolation-filters="sRGB"
       id="filter4372">
      <feGaussianBlur
         stdDeviation="5"
         result="result91"
         id="feGaussianBlur4374" />
      <feComposite
         in="SourceGraphic"
         operator="over"
         in2="result91"
         id="feComposite4376" />
    </filter>
    <filter
       inkscape:label="Glow"
       inkscape:menu="Shadows and Glows"
       inkscape:menu-tooltip="Glow of object's own color at the edges"
       color-interpolation-filters="sRGB"
       id="filter3858">
      <feGaussianBlur
         stdDeviation="5"
         result="result91"
         id="feGaussianBlur3860" />
      <feComposite
         in="SourceGraphic"
         operator="over"
         in2="result91"
         id="feComposite3862" />
    </filter>
    <filter
       inkscape:label="Glow"
       inkscape:menu="Shadows and Glows"
       inkscape:menu-tooltip="Glow of object's own color at the edges"
       color-interpolation-filters="sRGB"
       id="filter3810-1">
      <feGaussianBlur
         stdDeviation="5"
         result="result91"
         id="feGaussianBlur3812-7" />
      <feComposite
         in="SourceGraphic"
         operator="over"
         in2="result91"
         id="feComposite3814-4" />
    </filter>
    <filter
       inkscape:label="Glow"
       inkscape:menu="Shadows and Glows"
       inkscape:menu-tooltip="Glow of object's own color at the edges"
       color-interpolation-filters="sRGB"
       id="filter3810-1-0">
      <feGaussianBlur
         stdDeviation="5"
         result="result91"
         id="feGaussianBlur3812-7-9" />
      <feComposite
         in="SourceGraphic"
         operator="over"
         in2="result91"
         id="feComposite3814-4-4" />
    </filter>
  </defs>
  <sodipodi:namedview
     id="base"
     pagecolor="#ffffff"
     bordercolor="#666666"
     borderopacity="1.0"
     inkscape:pageopacity="0.0"
     inkscape:pageshadow="2"
     inkscape:zoom="0.21213203"
     inkscape:cx="49.212718"
     inkscape:cy="670.55037"
     inkscape:current-layer="layer1"
     inkscape:document-units="px"
     showgrid="false"
     inkscape:window-width="1280"
     inkscape:window-height="962"
     inkscape:window-x="-8"
     inkscape:window-y="-8"
     inkscape:window-maximized="1" />
  <metadata
     id="metadata2990">
    <rdf:RDF>
      <cc:Work
         rdf:about="">
        <dc:format>image/svg+xml</dc:format>
        <dc:type
           rdf:resource="http://purl.org/dc/dcmitype/StillImage" />
        <dc:title></dc:title>
      </cc:Work>
    </rdf:RDF>
  </metadata>
  <g
     id="layer1"
     inkscape:label="Layer 1"
     inkscape:groupmode="layer">
    <path
       style="fill:#000000;fill-opacity:1;stroke:#000000;stroke-width:3.06351781px;stroke-linecap:butt;stroke-linejoin:miter;stroke-opacity:1"
       d="m 955.8253,361.44134 c 1.23896,17.93501 7.54204,36.18199 3.91853,53.79098 -0.60637,2.94686 -4.15671,8.01169 -4.15671,8.01169 0,0 3.88758,29.13423 11.11758,44.81543 2.1174,4.5923 9.1672,4.6793 14.1695,5.4197 9.5657,1.416 28.9359,-2.0701 28.9359,-2.0701 0,0 1.9393,16.9309 6.6713,23.5951 24.2,34.0797 51.2918,65.219 78.6946,96.2482 3.5626,4.0342 -4.7739,10.049 -4.7523,15.4309 0.026,6.3824 3.2504,12.3945 5.7824,18.253 3.3602,7.7748 6.7835,15.8336 12.3846,22.187 9.8493,11.1719 35.977,26.4959 35.977,26.4959 0,0 14.0799,6.1464 20.7732,3.8632 4.8365,-1.6498 9.2026,-10.6814 9.2026,-10.6814 0,0 -2.4695,-0.7993 -2.5963,-1.8555 -0.2802,-2.333 4.6011,-5.3405 4.6011,-5.3405 0,0 1.547,2.03 2.5963,1.8555 5.0366,-0.8381 8.9064,-12.4622 8.9064,-12.4622 0,0 -1.8832,-1.7487 -1.8541,-2.8941 0.054,-2.1266 1.6811,-4.5556 3.7109,-5.1925 1.4778,-0.4637 4.3771,1.5591 4.3771,1.5591 l 7.6448,-11.7947 c 0,0 -2.0089,-2.6185 -2.5215,-4.1554 -0.7154,-2.1455 -2.1775,-5.0698 -0.6659,-6.7519 1.9342,-2.1523 6.257,1.5087 8.6805,-0.072 3.6342,-2.3706 4.7862,-7.5664 5.3449,-11.8694 0.5422,-4.177 0.099,-8.8567 -2.0742,-12.4651 -3.5135,-5.835 -12.2771,-6.8584 -16.2452,-12.3942 -2.7521,-3.8394 -1.6352,-9.6914 -4.5223,-13.4303 -3.2532,-4.213 -8.709,-6.1564 -13.3526,-8.758 -6.2256,-3.4871 -12.4253,-7.4581 -19.3621,-9.1306 -8.2026,-1.9777 -16.9693,-2.1644 -25.2996,-0.8227 -5.5927,0.9009 -15.953,5.8572 -15.953,5.8572 l -62.8966,-75.5444 0.6688,-4.2289 c 0,0 -4.3852,-11.104 -1.5536,-17.5841 4.2576,-9.7432 24.7859,-21.50963 24.7859,-21.50963 0,0 -4.3383,-28.95929 -13.0479,-39.91906 -1.7257,-2.17171 -6.1385,-1.71129 -7.1213,-4.30509 -5.5882,-14.74739 -6.4044,-29.74859 -13.1214,-43.10943 -3.1766,-6.31842 -5.9501,-14.72816 -11.4956,-16.84486 -9.6146,-3.66984 -20.4291,-3.45085 -30.7152,-3.12387 -7.8185,0.24846 -15.7184,1.4075 -23.1492,3.85233 -5.6944,1.87337 -11.48376,4.24719 -16.02771,8.1571 -3.064,2.63642 -5.94297,5.97859 -7.05077,9.86579 -0.82888,2.90806 0.38287,6.03516 0.59118,9.05182 z"
       id="path3842-5"
       inkscape:connector-curvature="0"
       sodipodi:nodetypes="sscsacssssacscscscssccsssssssssscccscassssssss" />
    <path
       style="opacity:0.81322955;fill:#ffffff;fill-opacity:1;stroke:none"
       d="m 1039.1499,390.69699 c 5.8431,-2.62799 11.2604,-4.60493 11.389,-10.26126 0.2399,-10.55145 -2.5599,-26.62159 -11.5234,-39.60582 -2.2876,-3.31387 -5.5856,-6.33136 -9.4064,-7.60247 -8.8345,-2.93904 -27.1994,-0.70125 -27.1994,-0.70125 l 20.0834,3.73698 c 0,0 10.5989,5.89315 14.2239,10.55146 6.7872,8.72061 8.5806,33.67502 8.5806,33.67502 l -49.1748,23.47259 c 0,0 29.757,-7.29638 43.0271,-13.26525 z"
       id="path3844-5"
       inkscape:connector-curvature="0"
       sodipodi:nodetypes="ssssccsccs" />
    <path
       style="opacity:0.90661477;fill:#ffffff;fill-opacity:1;stroke:none"
       d="m 1071.1446,434.20547 c -1.0895,6.0707 -12.5675,10.98767 -12.5675,10.98767 0,0 -8.6583,8.2343 -3.4641,6.3995 5.1941,-1.8348 22.0382,-15.31352 22.0382,-15.31352 0,0 -4.1266,-24.14933 -11.5332,-34.31311 -1.9491,-2.6748 -2.3465,-6.05512 -4.7401,-5.0222 -7.7771,4.11009 12.5247,24.6803 10.2667,37.26166 z"
       id="path3846-1"
       inkscape:connector-curvature="0"
       sodipodi:nodetypes="ccscscc" />
    <path
       inkscape:connector-curvature="0"
       style="fill:#000000;fill-opacity:1;stroke:#000000;stroke-width:2.62412882px;stroke-linecap:butt;stroke-linejoin:miter;stroke-opacity:1"
       d="m 984.319,769.51077 c -3.4901,0.76142 -1.876,8.93117 -2.3783,13.12065 -2.0547,17.14461 2.1775,34.69484 -0.328,51.82654 -0.2257,1.55112 -3.526,2.29611 -3.526,2.29611 0,0 -2.1537,36.96456 0,52.56458 0.4243,3.07414 4.3143,4.54549 6.9702,6.1503 8.1324,4.9135 25.7965,0.74463 26.6514,10.0865 1.9668,21.49434 3.1248,48.40764 -0.656,73.63961 -5.4724,36.52094 -18.09,71.66784 -31.8176,105.37514 -2.5514,6.2651 -12.7107,16.5648 -12.7107,16.5648 l 0,19.3529 -5.4123,10.0045 -0.82,28.6195 c 0,0 112.8944,-2.0077 169.3384,-2.2961 7.954,-0.039 -1.3622,-17.3583 -5.4123,-24.7652 -7.1691,-13.1109 -19.2923,-23.2576 -31.6535,-31.6535 -9.4057,-6.3885 -31.3256,-13.5308 -31.3256,-13.5308 0,0 -15.8324,-3.936 -23.2072,-1.558 -7.3171,2.3596 -18.2049,11.9726 -18.2049,11.9726 0,0 22.1518,-74.7091 31.0796,-110.78748 6.6265,-26.7785 -0.1627,-83.23408 -0.1627,-83.23408 0,0 30.4596,-7.22268 41.8221,-17.05684 6.8763,-5.95139 1.7689,-20.09435 0.7379,-30.09548 -0.4613,-4.47705 -2.5367,-8.73929 -3.1162,-13.20265 -1.2275,-9.45956 7.3227,-23.43121 -0.7379,-28.6194 -31.8409,-20.49426 -63.2338,-42.10556 -104.3912,-44.7742 -0.2805,-0.0184 -0.5052,-0.0506 -0.7379,0 z"
       id="path3004-8" />
    <path
       style="fill:#ffffff;fill-opacity:1;stroke:#000000;stroke-opacity:1;filter:url(#filter3810-1-0)"
       d="m 1476.1342,1014.6281 c 0,0 -3.5059,2.603 -4.4768,4.4768 -0.9183,1.7723 -1.0174,5.9011 -1.0174,5.9011 l 2.4418,0 c 0,0 0.086,-3.5317 0.814,-5.0872 1.1816,-2.5257 5.4942,-6.3081 5.4942,-6.3081 z"
       id="path3783-8"
       inkscape:connector-curvature="0"
       sodipodi:nodetypes="csccscc"
       transform="matrix(2.6241288,0,0,2.6241288,-2831.5589,-1566.1438)" />
    <path
       style="fill:#ffffff;fill-opacity:1;stroke:#000000;stroke-width:2.62412882px;stroke-linecap:butt;stroke-linejoin:miter;stroke-opacity:1"
       d="m 1055.1977,1096.2696 c 0,0 -9.4187,6.993 -12.0271,12.0271 -2.4672,4.7615 -2.7336,15.8542 -2.7336,15.8542 l 6.5603,0 c 0,0 0.231,-9.4883 2.1867,-13.6675 3.1747,-6.7854 14.7608,-16.9474 14.7608,-16.9474 z"
       id="path3783-1-2"
       inkscape:connector-curvature="0"
       sodipodi:nodetypes="csccscc" />
    <path
       style="fill:#ffffff;fill-opacity:1;stroke:#000000;stroke-width:2.62412882px;stroke-linecap:butt;stroke-linejoin:miter;stroke-opacity:1"
       d="m 1066.9517,1097.3628 c 0,0 -9.4187,6.9933 -12.0271,12.0274 -2.4672,4.7615 -2.7336,15.8539 -2.7336,15.8539 l 6.5603,0 c 0,0 0.231,-9.4883 2.1867,-13.6672 3.1747,-6.7855 14.7607,-16.9474 14.7607,-16.9474 z"
       id="path3783-7-4"
       inkscape:connector-curvature="0"
       sodipodi:nodetypes="csccscc" />
    <path
       style="fill:#000000;fill-opacity:1;stroke:none"
       d="m 664.63137,417.23065 c -5.12097,-0.0547 -10.32425,-0.41563 -15.35397,0.54835 -5.33743,1.02297 -11.00304,2.2271 -15.35394,5.48355 -1.9904,1.48971 -4.38685,6.03191 -4.38685,6.03191 l -0.54835,17.54739 c 0,0 -8.63468,5.17301 -12.06381,8.77368 -4.3704,4.58902 -6.81434,10.69006 -10.41877,15.90231 -6.17603,8.93095 -18.6316,15.47713 -19.19242,26.32106 -1.25104,24.1894 1.09669,66.351 1.09669,66.351 l 0,72.93129 0.54837,43.86842 4.38683,19.7408 c 0,0 -4.9352,2.74178 -3.83848,12.61218 1.09672,9.8704 1.09672,26.86941 1.09672,26.86941 l 167.79676,-8.77368 c 0,0 -0.11344,-32.54054 -0.54834,-48.80364 -1.04155,-38.95407 -2.54288,-77.90524 -4.9352,-116.79971 -1.11457,-18.12047 -1.96932,-36.29416 -4.38685,-54.28719 -1.31279,-9.77075 -1.71308,-19.95381 -5.48355,-29.06285 -3.72285,-8.99401 -9.69478,-17.11977 -16.45066,-24.12762 -2.99405,-3.1057 -10.41877,-7.67698 -10.41877,-7.67698 0,0 -1.17058,-15.06105 -1.0967,-25.22435 0.0326,-4.49579 -7.71944,-4.87452 -12.06383,-6.03191 -12.38391,-3.29922 -25.56978,-2.05642 -38.38488,-2.19342 z"
       id="path3863"
       inkscape:connector-curvature="0"
       sodipodi:nodetypes="sssccsssccccsccssssscsss" />
    <path
       style="fill:#ffffff;fill-opacity:1;stroke:none"
       d="m 645.86253,710.58857 c 0,0 26.30056,-7.748 39.4816,-11.51547 18.25065,-5.21649 39.57529,-4.06581 54.83553,-15.35394 6.8075,-5.03556 13.70891,-21.38586 13.70891,-21.38586 l -1.64507,20.83749 c 0,0 -8.72414,6.93681 -13.70888,9.32205 -7.92801,3.79365 -16.69805,5.54463 -25.22437,7.67698 -12.83241,3.20925 -38.93324,7.67696 -38.93324,7.67696 z"
       id="path3867"
       inkscape:connector-curvature="0"
       sodipodi:nodetypes="cssccsscc" />
    <path
       style="fill:#000000;fill-opacity:1;stroke:#000000;stroke-width:2.41181874px;stroke-linecap:butt;stroke-linejoin:miter;stroke-opacity:1"
       d="m 753.26809,335.63741 1.005,-16.0788 c 0,0 -10.176,0.1649 -15.0739,-1.005 -8.32097,-1.9873 -16.57907,-5.1837 -23.61577,-10.0492 -8.7694,-6.0636 -13.5291,-16.7837 -22.1084,-23.1133 -4.5205,-3.3351 -8.7848,-4.1909 -13.2973,-7.5369 -3.5213,-2.6109 -9.0637,-5.5308 -10.8209,-9.5468 -1.0094,-2.3067 1.2737,-5.7523 -0.5024,-7.5369 -1.6584,-1.6662 -4.9606,-1.6092 -7.0345,-0.5025 -1.1912,0.6357 -2.0098,3.5173 -2.0098,3.5173 l -3.0148,-46.2266 c 0,0 7.7239,-10.4254 9.0443,-16.5812 0.458,-2.1352 0.036,-4.416 -0.5024,-6.532 -0.908,-3.5593 -4.5221,-10.0493 -4.5221,-10.0493 0,0 -4.2574,-44.24596 1.1268,-65.1729 2.3551,-9.15416 5.6297,-17.22538 11.937,-24.265356 9.1211,-10.18016 20.7974,-18.29326 33.1626,-24.11819 5.4755,-2.57944 17.5862,-4.52216 17.5862,-4.52216 l 0,-4.52216 c 0,0 7.8888,-6.11919 12.5615,-7.53693 6.57887,-1.99614 14.02757,-3.01948 20.60097,-1.00493 2.4019,0.73613 6.0296,4.52216 6.0296,4.52216 l 0,2.51232 c 0,0 32.3186,-1.55635 47.9419,0.41625 11.7322,1.48129 22.5155,3.63941 33.4569,8.12561 10.2744,4.21273 20.911,8.93886 29.1428,16.13975 6.1552,5.38436 10.3153,11.76717 14.0691,19.032596 2.2857,4.42417 4.1493,9.1667 5.0245,14.06894 2.8554,15.99426 0.5024,48.73885 0.5024,48.73885 0,0 11.003,0.81953 16.287,2.27893 6.4126,1.77102 12.3862,3.94004 18.3829,7.7703 8.6309,5.51262 17.8219,9.71732 24.0215,19.15452 2.9786,4.5338 8.9637,9.9072 7.1312,15.0129 -0.6813,1.8983 -4.5221,4.0197 -4.5221,4.0197 0,0 -8.1083,0.2573 -12.0591,-0.5025 -9.4153,-1.8106 -17.7525,-7.564 -27.133,-9.5467 -8.383,-1.7718 -26.6306,-4.0197 -25.6256,-2.0099 1.0051,2.0099 -0.5023,54.266 -0.5023,54.266 0,0 -4.1833,16.6515 -8.8111,24.2043 -8.0521,13.1419 -18.9598,25.0141 -32.391,32.5739 -7.7591,4.3672 -16.8217,4.431 -25.6256,5.7604 -12.0907,1.8258 -36.6796,2.279 -36.6796,2.279 l -0.5024,17.5861 z"
       id="path3880"
       inkscape:connector-curvature="0"
       sodipodi:nodetypes="ccsssssssccsscsssccssccssssscsssscssscsssccc" />
    <path
       style="fill:#ffffff;fill-opacity:1;stroke:none;filter:url(#filter3858)"
       d="m 777.38619,214.04151 c -1.4543,4.8125 -1.3828,10.4133 0.5024,15.0739 1.7786,4.3971 5.2365,8.5722 9.547,10.5517 5.938,2.7268 13.6116,3.126 19.596,0.5024 4.8919,-2.1445 8.8299,-7.0029 10.5517,-12.0591 1.731,-5.0834 1.1516,-11.1608 -1.005,-16.0787 -2.236,-5.0989 -6.4024,-9.9542 -11.5567,-12.0591 -4.9643,-2.0273 -11.215,-1.7554 -16.0786,0.5024 -4.0876,1.8976 -6.248,4.6555 -8.1255,7.0228 -1.8774,2.3673 -3.0145,5.1645 -3.4313,6.5437 z"
       id="path3882"
       inkscape:connector-curvature="0"
       sodipodi:nodetypes="ssassssszs" />
    <path
       style="fill:#ffffff;fill-opacity:1;stroke:none;filter:url(#filter4372)"
       d="m 845.72099,216.05131 c -0.8419,4.1017 -1.2375,8.5615 0,12.5616 1.1396,3.6836 3.2762,7.4812 6.5322,9.5468 4.4409,2.8173 10.612,4.249 15.5762,2.5123 4.7005,-1.6444 8.1681,-6.4434 10.0494,-11.0542 1.8362,-4.5003 1.9418,-9.9178 0.539,-14.5714 -1.2496,-4.1452 -4.0289,-8.4195 -7.5736,-10.5517 -4.3152,-2.5957 -10.3855,-2.8432 -15.0738,-1.0049 -3.8606,1.5138 -5.3896,3.6619 -7.292,6.2318 -1.3693,1.8498 -2.501,5.0802 -2.7574,6.3297 z"
       id="path3884"
       inkscape:connector-curvature="0"
       sodipodi:nodetypes="ssssaassas" />
    <path
       style="opacity:0.6342412;fill:#ffffff;fill-opacity:1;stroke:#000000;stroke-width:2.41181874px;stroke-linecap:butt;stroke-linejoin:miter;stroke-opacity:1"
       d="m 766.83449,170.82974 c 0,0 28.6192,-11.73314 43.7143,-14.57139 16.4809,-3.0988 33.5758,-4.33618 50.2461,-2.51232 8.8053,0.96338 19.692,0.45777 25.6256,7.03448 0.6825,0.75642 -53.9133,3.30024 -54.5682,4.08065 -11.6281,13.85685 18.8689,-1.5233 0.8049,-0.56342 -12.0989,0.64292 -24.1209,2.31812 -36.1773,3.51723 -9.8839,0.98303 -29.6454,3.01477 -29.6454,3.01477 z"
       id="path3886"
       inkscape:connector-curvature="0"
       sodipodi:nodetypes="cssssssc" />
    <path
       style="opacity:0.74319063;fill:#ffffff;fill-opacity:1;stroke:#000000;stroke-width:2.41181874px;stroke-linecap:butt;stroke-linejoin:miter;stroke-opacity:1"
       d="m 748.74589,107.01705 0,4.0197 c 0,0 54.2698,-0.45967 81.3989,0 9.886,0.16762 19.9139,-0.744 29.6453,1.00491 6.7768,1.2179 14.4844,1.91899 19.5961,6.53202 4.2293,3.81688 5.559,10.07364 7.0343,15.57633 0.8716,3.25163 3.492,11.47044 3.492,11.47044 l 2.0351,-0.41628 c 0,0 1.8955,-18.09523 -1.5074,-26.12803 -2.2193,-5.23898 -6.5046,-9.94441 -11.5567,-12.56155 -8.0979,-4.19502 -18.0319,-2.92983 -27.1329,-3.51725 -24.5695,-1.58584 -49.294,-1.60941 -73.862,0 -6.4055,0.41961 -19.0934,2.51232 -19.0934,2.51232 z"
       id="path3888"
       inkscape:connector-curvature="0"
       sodipodi:nodetypes="ccssssccsasscc" />
    <path
       style="fill:#000000;fill-opacity:1;stroke:#000000;stroke-width:3.06351781px;stroke-linecap:butt;stroke-linejoin:miter;stroke-opacity:1"
       d="m 490.75281,401.37794 c -13.8713,11.43626 -25.0519,27.17395 -41.4852,34.46457 -2.7501,1.22008 -8.9351,1.27648 -8.9351,1.27648 0,0 -21.4428,20.1028 -29.997,35.1028 -2.5051,4.39275 1.5232,10.17897 3.8294,14.67936 4.4099,8.60579 18.5088,22.33814 18.5088,22.33814 0,0 -12.6471,11.42214 -15.3176,19.14698 -13.6559,39.50423 -23.238,79.65153 -32.5498,119.98783 -1.2107,5.2441 -10.9515,1.9589 -15.3176,5.1058 -5.1777,3.7319 -8.194,9.8512 -11.4882,15.3176 -4.3717,7.2544 -8.9378,14.7253 -10.8501,22.9764 -3.3625,14.5091 -0.6381,44.6763 -0.6381,44.6763 0,0 3.1861,15.029 8.9354,19.147 4.1544,2.9757 14.041,1.2765 14.041,1.2765 0,0 -0.7855,-2.4739 0,-3.1912 1.7352,-1.5845 7.0203,0.6382 7.0203,0.6382 0,0 -0.7521,2.439 0,3.1912 3.6104,3.6104 15.3176,0 15.3176,0 0,0 0.3278,-2.5489 1.2766,-3.1912 1.7615,-1.1926 4.6838,-1.2811 6.3822,0 1.2365,0.9327 1.2766,4.4677 1.2766,4.4677 l 14.041,-0.6383 c 0,0 0.9623,-3.1569 1.9147,-4.4676 1.3296,-1.8295 2.8586,-4.7194 5.106,-4.4676 2.8757,0.3222 2.4107,5.9679 5.1059,7.0205 4.0417,1.5784 8.9388,-0.5055 12.7645,-2.5529 3.7136,-1.9875 7.263,-5.0694 8.9354,-8.9353 2.7044,-6.2512 -1.5585,-13.9762 0.6381,-20.4234 1.5235,-4.4714 6.934,-6.9654 8.2972,-11.4882 1.5361,-5.0964 -0.055,-10.6651 -0.6384,-15.9558 -0.7827,-7.0926 -1.1568,-14.4455 -3.8294,-21.0617 -3.1603,-7.8234 -8.1058,-15.0644 -14.041,-21.0617 -3.9848,-4.0264 -14.0411,-9.5735 -14.0411,-9.5735 l 24.8911,-95.0967 3.8294,-1.9147 c 0,0 6.4843,-10.0241 13.4029,-11.4882 10.4025,-2.2012 31.9115,7.6588 31.9115,7.6588 0,0 21.0384,-20.36778 24.891,-33.82634 0.7635,-2.66673 -2.1769,-5.98918 -0.6381,-8.29702 8.7491,-13.12117 20.4793,-22.50754 27.4439,-35.74105 3.2936,-6.25818 8.523,-13.40448 7.0207,-19.14698 -2.6046,-9.95613 -9.0708,-18.62733 -15.3176,-26.80579 -4.7482,-6.21661 -10.2845,-11.96993 -16.5942,-16.59406 -4.8351,-3.54363 -10.1326,-6.87346 -15.9557,-8.29702 -3.9265,-0.95989 -8.3196,-1.35888 -12.1263,0 -2.8479,1.01651 -4.6875,3.82064 -7.0207,5.7441 z"
       id="path3842"
       inkscape:connector-curvature="0"
       sodipodi:nodetypes="sscsacssssacscscscssccsssssssssscccscassssssss" />
    <path
       style="opacity:0.81322955;fill:#ffffff;fill-opacity:1;stroke:none"
       d="m 515.39941,486.18031 c 5.5355,3.22573 10.2938,6.48372 14.9705,3.29953 8.724,-5.93985 20.1705,-17.56168 25.5225,-32.4039 1.366,-3.78795 1.9034,-8.22567 0.716,-12.07329 -2.7456,-8.89649 -15.2444,-22.53677 -15.2444,-22.53677 l 8.637,18.51235 c 0,0 1.3681,12.04973 -0.3141,17.70753 -3.1486,10.59251 -22.4084,26.56119 -22.4084,26.56119 l -47.6894,-26.35998 c 0,0 23.2383,19.96749 35.8103,27.29334 z"
       id="path3844"
       inkscape:connector-curvature="0"
       sodipodi:nodetypes="ssssccsccs" />
    <path
       style="opacity:0.90661477;fill:#ffffff;fill-opacity:1;stroke:none"
       d="m 498.60461,537.5085 c -5.5725,2.6434 -16.2467,-3.836 -16.2467,-3.836 0,0 -11.7336,-2.2565 -7.2207,0.9026 4.5128,3.159 25.2728,9.026 25.2728,9.026 0,0 17.2482,-17.39887 21.2108,-29.33446 1.0429,-3.14096 3.562,-5.42972 1.3299,-6.77656 -7.8659,-3.93763 -12.7972,24.54012 -24.3461,30.01842 z"
       id="path3846"
       inkscape:connector-curvature="0"
       sodipodi:nodetypes="ccscscc" />
    <path
       inkscape:connector-curvature="0"
       style="fill:#000000;fill-opacity:1;stroke:#000000;stroke-width:2.62412882px;stroke-linecap:butt;stroke-linejoin:miter;stroke-opacity:1"
       d="m 206.46939,736.51244 c -3.4901,0.76142 -1.876,8.93117 -2.3783,13.12065 -2.0547,17.14461 2.1775,34.69484 -0.328,51.82654 -0.2257,1.55112 -3.526,2.29611 -3.526,2.29611 0,0 -2.1537,36.96456 0,52.56458 0.4243,3.07414 4.3143,4.54549 6.9702,6.1503 8.1324,4.9135 25.7965,0.74463 26.6514,10.0865 1.9668,21.49434 3.1248,48.40764 -0.656,73.63961 -5.4724,36.52095 -18.09,71.66787 -31.8176,105.37507 -2.5514,6.2651 -12.7107,16.5648 -12.7107,16.5648 l 0,19.3529 -5.4123,10.0045 -0.82,28.6195 c 0,0 112.8944,-2.0077 169.3384,-2.2961 7.954,-0.039 -1.3622,-17.3583 -5.4123,-24.7652 -7.1691,-13.1109 -19.2923,-23.2576 -31.6535,-31.6535 -9.4057,-6.3885 -31.3256,-13.5308 -31.3256,-13.5308 0,0 -15.8324,-3.936 -23.2072,-1.558 -7.3171,2.3596 -18.2049,11.9726 -18.2049,11.9726 0,0 22.1518,-74.70903 31.0796,-110.78741 6.6265,-26.7785 -0.1627,-83.23408 -0.1627,-83.23408 0,0 30.4596,-7.22268 41.8221,-17.05684 6.8763,-5.95139 1.7689,-20.09435 0.7379,-30.09548 -0.4613,-4.47705 -2.5367,-8.73929 -3.1162,-13.20265 -1.2275,-9.45956 7.3227,-23.43121 -0.7379,-28.6194 -31.8409,-20.49426 -63.2338,-42.10556 -104.3912,-44.7742 -0.2805,-0.0184 -0.5052,-0.0506 -0.7379,0 z"
       id="path3004" />
    <path
       style="fill:#ffffff;fill-opacity:1;stroke:#000000;stroke-opacity:1;filter:url(#filter3810-1)"
       d="m 1476.1342,1014.6281 c 0,0 -3.5059,2.603 -4.4768,4.4768 -0.9183,1.7723 -1.0174,5.9011 -1.0174,5.9011 l 2.4418,0 c 0,0 0.086,-3.5317 0.814,-5.0872 1.1816,-2.5257 5.4942,-6.3081 5.4942,-6.3081 z"
       id="path3783"
       inkscape:connector-curvature="0"
       sodipodi:nodetypes="csccscc"
       transform="matrix(2.6241288,0,0,2.6241288,-3609.4086,-1599.1421)" />
    <path
       style="fill:#ffffff;fill-opacity:1;stroke:#000000;stroke-width:2.62412882px;stroke-linecap:butt;stroke-linejoin:miter;stroke-opacity:1"
       d="m 277.34809,1063.2712 c 0,0 -9.4187,6.993 -12.0271,12.0271 -2.4672,4.7615 -2.7336,15.8542 -2.7336,15.8542 l 6.5603,0 c 0,0 0.231,-9.4883 2.1867,-13.6675 3.1747,-6.7854 14.7608,-16.9474 14.7608,-16.9474 z"
       id="path3783-1"
       inkscape:connector-curvature="0"
       sodipodi:nodetypes="csccscc" />
    <path
       style="fill:#ffffff;fill-opacity:1;stroke:#000000;stroke-width:2.62412882px;stroke-linecap:butt;stroke-linejoin:miter;stroke-opacity:1"
       d="m 289.10209,1064.3644 c 0,0 -9.4187,6.9933 -12.0271,12.0274 -2.4672,4.7615 -2.7336,15.8539 -2.7336,15.8539 l 6.5603,0 c 0,0 0.231,-9.4883 2.1867,-13.6672 3.1747,-6.7855 14.7607,-16.9474 14.7607,-16.9474 z"
       id="path3783-7"
       inkscape:connector-curvature="0"
       sodipodi:nodetypes="csccscc" />
  </g>
</svg>
